<svg width="32" height="32"
  xmlns="http://www.w3.org/2000/svg" version="1.0" preserveAspectRatio="xMidYMid meet">
  <g>
    <title>Layer 1</title>
    <g transform="translate(0.000000,32.000000) scale(0.100000,-0.100000)" fill="#5068F9" id="svg_1">
      <path d="m50,270c0,-5 39,-11 87,-12c85,-3 88,-4 101,-31c11,-23 11,-32 -1,-57c-14,-27 -14,-28 3,-17c25,15 42,55 35,78c-11,33 -58,49 -145,49c-44,0 -80,-4 -80,-10z" id="svg_2"/>
      <path d="m93,228c-9,-12 -43,-93 -43,-103c0,-3 14,-5 31,-5c26,0 29,-3 24,-21c-10,-30 5,-18 43,35l33,46l-31,0c-27,0 -30,2 -20,19c5,11 10,24 10,30c0,15 -35,14 -47,-1z" id="svg_3"/>
      <path d="m188,133c7,-3 16,-2 19,1c4,3 -2,6 -13,5c-11,0 -14,-3 -6,-6z" id="svg_4"/>
    </g>
  </g>

</svg>