<svg xmlns="http://www.w3.org/2000/svg" width="180" height="95.95" viewBox="0 0 180 95.95">
  <g id="logo_SuperMicro" transform="translate(-44.121 -30.773)">
    <g id="Group_40" data-name="Group 40" transform="translate(44.121 30.773)">
      <path id="Path_6133" data-name="Path 6133" d="M223.863,66.585c-3.731-25.623-46.934-40.949-96.5-34.233S40.648,65.288,44.379,90.911s46.934,40.95,96.5,34.232S227.594,92.208,223.863,66.585Zm-77.979,50.678c-45.418,4.541-84.209-10.269-86.64-33.079S91.659,39.2,137.076,34.66s84.206,10.269,86.64,33.081S191.3,112.722,145.884,117.263Z" transform="translate(-44.121 -30.773)" fill="#00852a"/>
      <path id="Path_6134" data-name="Path 6134" d="M171.664,41.667c-45.637,4.575-80.652,26.906-78.208,49.879s41.421,37.89,87.059,33.316,80.649-26.9,78.208-49.878S217.3,37.095,171.664,41.667Z" transform="translate(-79.115 -37.934)" fill="#fff"/>
    </g>
    <g id="Group_50" data-name="Group 50" transform="translate(62.893 64.574)">
      <g id="Group_41" data-name="Group 41" transform="translate(0)">
        <path id="Path_6135" data-name="Path 6135" d="M123.306,154.89h-.558c-.216-3.344-2.32-6.049-5.723-6.049a3.489,3.489,0,0,0-3.559,3.279c0,4.426,11.2,5.191,11.2,11.431a6.1,6.1,0,0,1-6.467,6.083,8.483,8.483,0,0,1-3.248-.605,6.764,6.764,0,0,0-2.2-.573c-.712,0-.866.541-.929,1.178h-.556V162.4h.556c.465,5.095,4.239,5.986,6.065,5.986,2.073,0,4.084-1.114,4.084-3.439,0-4.841-10.89-5.412-10.89-11.718a5.856,5.856,0,0,1,6.064-5.636,6.985,6.985,0,0,1,2.785.6,7.451,7.451,0,0,0,1.764.6c.742,0,.928-.572,1.051-1.209h.558Z" transform="translate(-110.507 -147.02)" fill="#002d5e"/>
        <path id="Path_6136" data-name="Path 6136" d="M116.778,168.789a9.05,9.05,0,0,1-3.462-.646c-.133-.045-.284-.1-.43-.153a4.6,4.6,0,0,0-1.554-.38c-.174,0-.289,0-.353.657l-.051.522h-1.658V160.4h1.662l.048.525c.462,5.067,4.318,5.46,5.489,5.46,1.745,0,3.506-.885,3.506-2.861,0-1.922-2.24-3.175-4.611-4.5-2.943-1.648-6.279-3.515-6.279-7.215a6.446,6.446,0,0,1,6.642-6.214,7.55,7.55,0,0,1,3.012.651c.22.081.448.175.657.262a3.581,3.581,0,0,0,.879.3c.2,0,.34,0,.484-.742l.091-.468h1.612v8.447h-1.678l-.035-.541c-.177-2.742-1.837-5.509-5.146-5.509a2.935,2.935,0,0,0-2.981,2.7c0,1.678,2.224,2.873,4.578,4.138,3.1,1.669,6.622,3.56,6.622,7.293A6.71,6.71,0,0,1,116.778,168.789Zm-5.445-2.334a5.583,5.583,0,0,1,1.947.449c.14.051.285.1.438.156a7.975,7.975,0,0,0,3.06.574c3.412,0,5.889-2.315,5.889-5.5,0-3.042-3.057-4.686-6.014-6.275-2.667-1.434-5.186-2.788-5.186-5.156a4.067,4.067,0,0,1,4.136-3.857,5.994,5.994,0,0,1,5.7,3.9v-3.153a1.432,1.432,0,0,1-1.031.376,3.688,3.688,0,0,1-1.321-.384c-.2-.082-.411-.171-.643-.257a6.385,6.385,0,0,0-2.584-.568,5.291,5.291,0,0,0-5.486,5.058c0,3.022,2.892,4.641,5.688,6.207,2.675,1.5,5.2,2.912,5.2,5.511,0,2.76-2.417,4.017-4.661,4.017a6.438,6.438,0,0,1-6.043-3.928v3.125A1.391,1.391,0,0,1,111.333,166.455Z" transform="translate(-109.085 -145.598)" fill="#002d5e"/>
      </g>
      <g id="Group_42" data-name="Group 42" transform="translate(14.807 4.64)">
        <path id="Path_6137" data-name="Path 6137" d="M164.655,166.889c0-2.14,0-2.776-2.327-2.776v-.459h6.98v.459c-2.327,0-2.327.636-2.327,2.776v6.725a15.469,15.469,0,0,0,.4,3.745,3.841,3.841,0,0,0,3.837,2.444,5.161,5.161,0,0,0,4.33-2.062c.793-1.223.793-3.209.793-4.585v-6.267c0-2.14,0-2.776-2.326-2.776v-.459h5.716v.459c-2.326,0-2.326.636-2.326,2.776V174.4c0,3.057-1.163,6.494-6.311,6.494-5.248,0-6.435-3.08-6.435-6.418Z" transform="translate(-161.75 -163.076)" fill="#002d5e"/>
        <path id="Path_6138" data-name="Path 6138" d="M169.668,180.054c-4.654,0-7.013-2.354-7.013-7v-7.591a4.375,4.375,0,0,0-.19-1.865c-.106-.155-.379-.333-1.558-.333h-.578v-1.615h8.136v1.615h-.578c-1.18,0-1.453.178-1.559.333a4.375,4.375,0,0,0-.19,1.865v6.725a15.222,15.222,0,0,0,.367,3.562,3.3,3.3,0,0,0,3.289,2.049,4.622,4.622,0,0,0,3.848-1.8c.7-1.076.7-3,.7-4.267v-6.267a4.368,4.368,0,0,0-.191-1.865c-.105-.155-.378-.333-1.558-.333h-.578v-1.615h6.872v1.615h-.578c-1.179,0-1.452.178-1.557.333a4.375,4.375,0,0,0-.19,1.865v7.514C176.557,177.542,174.111,180.054,169.668,180.054ZM163.3,162.81a4.136,4.136,0,0,1,.509,2.657v7.591c0,3.714,1.528,5.536,4.924,5.8a4.186,4.186,0,0,1-3.327-2.74,16.052,16.052,0,0,1-.427-3.931v-6.725a4.136,4.136,0,0,1,.509-2.657Zm10.717,14.542a5.343,5.343,0,0,1-1.972,1.214A4.527,4.527,0,0,0,174.018,177.352Zm.965-14.542a2.328,2.328,0,0,1,.463,1.324,2.331,2.331,0,0,1,.464-1.324Z" transform="translate(-160.328 -161.654)" fill="#002d5e"/>
      </g>
      <g id="Group_43" data-name="Group 43" transform="translate(33.557 4.64)">
        <path id="Path_6139" data-name="Path 6139" d="M229.679,164.9a6.214,6.214,0,0,1,1.683-.229c2.129,0,3.39,1.732,3.39,3.821,0,1.834-1.113,3.641-2.723,3.641a12.015,12.015,0,0,1-2.351-.253Zm0,7.719a12.9,12.9,0,0,0,2.748.381c4.38,0,5.1-3.312,5.1-4.636,0-2.5-1.956-4.713-5.817-4.713h-6.683v.459c2.327,0,2.327.636,2.327,2.776v10.393c0,2.14,0,2.777-2.327,2.777v.458h6.98v-.458c-2.327,0-2.327-.638-2.327-2.777Z" transform="translate(-224.448 -163.076)" fill="#002d5e"/>
        <path id="Path_6140" data-name="Path 6140" d="M231.162,179.673h-8.136v-1.614h.578c1.18,0,1.453-.179,1.559-.334a4.379,4.379,0,0,0,.19-1.866V165.467a4.375,4.375,0,0,0-.19-1.865c-.106-.155-.379-.333-1.559-.333h-.578v-1.615h7.261c4.417,0,6.395,2.657,6.395,5.291,0,1.937-1.2,5.214-5.676,5.214a11.22,11.22,0,0,1-2.17-.247v3.948a4.379,4.379,0,0,0,.19,1.866c.106.155.379.334,1.559.334h.578ZM226,178.518h2.189a4.14,4.14,0,0,1-.509-2.658V163.043l.421-.118q.233-.066.472-.114H226a4.135,4.135,0,0,1,.509,2.657V175.86A4.14,4.14,0,0,1,226,178.518Zm5.115-15.671a4.194,4.194,0,0,1,2.794,4.225,4.5,4.5,0,0,1-1.968,3.87,3.957,3.957,0,0,0,3.584-4C235.525,165.18,234.351,163.142,231.115,162.847Zm-2.28,7.135a11.533,11.533,0,0,0,1.773.154c1.283,0,2.145-1.584,2.145-3.064,0-1.614-.87-3.243-2.812-3.243a5.721,5.721,0,0,0-1.106.107Z" transform="translate(-223.026 -161.654)" fill="#002d5e"/>
      </g>
      <g id="Group_44" data-name="Group 44" transform="translate(47.595 4.64)">
        <path id="Path_6141" data-name="Path 6141" d="M277.3,171.244h3.292c1.955,0,2.723-.2,2.871-2.47h.446v5.885h-.446c-.2-2.242-.866-2.5-2.871-2.5H277.3v6.164c0,1.045.3,1.274,1.337,1.274h3.366c2.178,0,2.97-1.044,4.256-3.312h.472l-1.387,4.229h-12.7v-.458c2.328,0,2.328-.638,2.328-2.777V166.889c0-2.14,0-2.776-2.328-2.776v-.459h12.575l.223,3.693h-.495c-.47-2.572-1.139-2.776-3.465-2.776H277.3Z" transform="translate(-272.07 -163.076)" fill="#002d5e"/>
        <path id="Path_6142" data-name="Path 6142" d="M284.343,179.673H270.648v-1.614h.578c1.18,0,1.453-.179,1.56-.334a4.379,4.379,0,0,0,.19-1.866V165.467a4.375,4.375,0,0,0-.19-1.865c-.106-.155-.379-.333-1.56-.333h-.578v-1.615h13.7l.292,4.849h-1.591l-.087-.474c-.409-2.239-.773-2.3-2.9-2.3h-3.6v5.517h2.714c1.754,0,2.173-.071,2.294-1.93l.035-.54h1.565v7.041h-1.553l-.046-.527c-.162-1.836-.467-1.97-2.295-1.97h-2.714V176.9c0,.683,0,.7.759.7h3.366c1.865,0,2.511-.828,3.754-3.019l.166-.293h1.606Zm-2.153-1.156h1.316l.386-1.18A3.914,3.914,0,0,1,282.19,178.518Zm-8.567,0h2.37c-.435-.248-.689-.728-.689-1.613V162.81h-1.681a4.133,4.133,0,0,1,.51,2.657V175.86A4.138,4.138,0,0,1,273.622,178.518Zm7.09-8.23a2.082,2.082,0,0,1,1.2.66v-1.308A2.1,2.1,0,0,1,280.713,170.287Zm1.562-7.477a2.072,2.072,0,0,1,1.027.76l-.046-.76Z" transform="translate(-270.648 -161.654)" fill="#002d5e"/>
      </g>
      <g id="Group_45" data-name="Group 45" transform="translate(63.033 4.64)">
        <path id="Path_6143" data-name="Path 6143" d="M329.641,164.8a13.382,13.382,0,0,1,2.029-.23,3.321,3.321,0,0,1,3.341,3.566c0,2.829-2.475,3.693-4.825,3.693h-.545Zm11.634,15.717v-.458c-2.253-.179-3.144-1.427-4.357-3.159l-3.193-4.584c2.154-.459,4.06-1.835,4.06-4.28,0-1.477-.867-4.381-5.693-4.381h-7.1v.459c2.327,0,2.327.636,2.327,2.776v10.393c0,2.14,0,2.777-2.327,2.777v.458h6.98v-.458c-2.328,0-2.328-.638-2.328-2.777v-4.636h1.683l5.57,7.871Z" transform="translate(-324.41 -163.076)" fill="#002d5e"/>
        <path id="Path_6144" data-name="Path 6144" d="M340.43,179.673h-5.258L329.6,171.8H328.8v4.058a4.38,4.38,0,0,0,.19,1.866c.106.155.379.334,1.559.334h.578v1.614h-8.136v-1.614h.578c1.18,0,1.453-.179,1.558-.334a4.378,4.378,0,0,0,.19-1.866V165.467a4.375,4.375,0,0,0-.19-1.865c-.106-.155-.379-.333-1.558-.333h-.578v-1.615h7.681c4.629,0,6.271,2.671,6.271,4.959a4.809,4.809,0,0,1-3.693,4.626l2.723,3.909c1.162,1.659,1.93,2.755,3.929,2.914l.532.042Zm-4.66-1.156h1.75a8.873,8.873,0,0,1-2.5-2.708l-3.641-5.226a6.52,6.52,0,0,1-1.034.27Zm-9.809,0h2.189a4.138,4.138,0,0,1-.509-2.658V162.882l.475-.073h-2.154a4.136,4.136,0,0,1,.509,2.657V175.86A4.139,4.139,0,0,1,325.961,178.518Zm5.833-15.647a4,4,0,0,1,2.373,3.844,3.833,3.833,0,0,1-2.344,3.69l.358-.076c1.083-.231,3.6-1.055,3.6-3.715C335.784,165.8,335.476,163.293,331.794,162.871Zm-3,1v5.957c1.59-.005,4.214-.423,4.214-3.115a2.757,2.757,0,0,0-2.763-2.988A9.308,9.308,0,0,0,328.8,163.873Z" transform="translate(-322.988 -161.654)" fill="#002d5e"/>
      </g>
      <g id="Group_46" data-name="Group 46" transform="translate(79.904 4.64)">
        <path id="Path_6145" data-name="Path 6145" d="M385.473,166.405h-.049v10.876c0,2.14,0,2.777,2.326,2.777v.458h-5.718v-.458c2.327,0,2.327-.638,2.327-2.777V166.864c0-2.039-.247-2.751-2.327-2.751v-.459h4.653l5.941,13.194,5.866-13.194h4.628v.459c-2.325,0-2.325.636-2.325,2.776v10.393c0,2.14,0,2.777,2.325,2.777v.458h-6.981v-.458c2.328,0,2.328-.638,2.328-2.777V166.405h-.05l-6.261,14.112h-.4Z" transform="translate(-381.454 -163.076)" fill="#002d5e"/>
        <path id="Path_6146" data-name="Path 6146" d="M402.276,179.673h-8.137v-1.614h.578c1.18,0,1.453-.179,1.559-.334a4.379,4.379,0,0,0,.19-1.866V167.6l-5.358,12.075h-1.148l-5.382-12.084v8.27a4.378,4.378,0,0,0,.19,1.866c.106.155.379.334,1.558.334h.578v1.614h-6.874v-1.614h.578c1.18,0,1.453-.179,1.559-.334a4.379,4.379,0,0,0,.19-1.866V165.442c0-1.95-.18-2.174-1.749-2.174h-.578v-1.615h5.6l5.564,12.357,5.494-12.357h5.582v1.615H401.7c-1.179,0-1.451.178-1.557.333a4.381,4.381,0,0,0-.19,1.865V175.86a4.378,4.378,0,0,0,.19,1.866c.106.155.378.334,1.557.334h.578Zm-5.163-1.156H399.3a4.142,4.142,0,0,1-.509-2.658V165.467a4.138,4.138,0,0,1,.509-2.657h-1.859l-.709,1.6h.887V175.86A4.14,4.14,0,0,1,397.113,178.518Zm-14.108,0h.927a2.331,2.331,0,0,1-.463-1.324A2.331,2.331,0,0,1,383.006,178.518Zm.472-14.112h.949l6.108,13.714.62-1.4-6.265-13.913h-2A2.576,2.576,0,0,1,383.477,164.405Z" transform="translate(-380.032 -161.654)" fill="#002d5e"/>
      </g>
      <g id="Group_47" data-name="Group 47" transform="translate(102.321 4.64)">
        <path id="Path_6147" data-name="Path 6147" d="M463.434,177.282c0,2.14,0,2.777,2.328,2.777v.458h-6.981v-.458c2.327,0,2.327-.638,2.327-2.777V166.889c0-2.14,0-2.776-2.327-2.776v-.459h6.981v.459c-2.328,0-2.328.636-2.328,2.776Z" transform="translate(-458.203 -163.076)" fill="#002d5e"/>
        <path id="Path_6148" data-name="Path 6148" d="M464.918,179.673h-8.137v-1.614h.578c1.18,0,1.453-.179,1.559-.334a4.379,4.379,0,0,0,.19-1.866V165.467a4.375,4.375,0,0,0-.19-1.865c-.106-.155-.379-.333-1.559-.333h-.578v-1.615h8.137v1.615h-.578c-1.181,0-1.454.178-1.56.333a4.373,4.373,0,0,0-.19,1.865V175.86a4.37,4.37,0,0,0,.191,1.866c.106.155.379.334,1.56.334h.578Zm-5.163-1.156h2.189a4.137,4.137,0,0,1-.509-2.658V165.467a4.133,4.133,0,0,1,.51-2.657h-2.189a4.136,4.136,0,0,1,.509,2.657V175.86A4.139,4.139,0,0,1,459.755,178.518Z" transform="translate(-456.781 -161.654)" fill="#002d5e"/>
      </g>
      <g id="Group_48" data-name="Group 48" transform="translate(111.486 4.257)">
        <path id="Path_6149" data-name="Path 6149" d="M502.69,168.062h-.372c-.767-2.879-2.425-4.84-5.494-4.84-3.291,0-5.719,2.624-5.719,8.228,0,5.655,3.294,7.412,6.115,7.412,2.624,0,3.985-1.273,5.471-3.488l.37.255c-1.51,2.852-3.539,4.329-6.782,4.329-4.726,0-7.943-3.717-7.943-8.48,0-4.993,3.365-9.119,8.389-9.119a7.362,7.362,0,0,1,3.491.891,1.726,1.726,0,0,0,.717.255c.544,0,.866-.636.965-1.172h.42Z" transform="translate(-487.757 -161.752)" fill="#002d5e"/>
        <path id="Path_6150" data-name="Path 6150" d="M494.856,179.112c-4.937,0-8.521-3.81-8.521-9.058,0-5.528,3.855-9.7,8.967-9.7a7.908,7.908,0,0,1,3.751.952l.053.027a1.422,1.422,0,0,0,.405.166c.124,0,.324-.305.4-.7l.087-.473h1.443l.447,6.888h-1.433l-.114-.429c-.791-2.968-2.405-4.411-4.936-4.411-3.267,0-5.141,2.788-5.141,7.65,0,6.341,4.238,6.834,5.537,6.834,2.373,0,3.585-1.136,4.991-3.232l.325-.485,1.277.877-.241.455C500.475,177.639,498.158,179.112,494.856,179.112Zm-2.612-16.992c-2.874,1.223-4.753,4.191-4.753,7.934,0,4.578,3.1,7.9,7.361,7.9-2.929-.383-5.747-2.61-5.747-7.929C489.1,166.2,490.236,163.45,492.244,162.12Zm7.068.523a6.308,6.308,0,0,1,1.217,1.536l-.123-1.885a1.271,1.271,0,0,1-.9.365A1.311,1.311,0,0,1,499.312,162.643Z" transform="translate(-486.335 -160.33)" fill="#002d5e"/>
      </g>
      <g id="Group_49" data-name="Group 49" transform="translate(127.548 4.64)">
        <path id="Path_6151" data-name="Path 6151" d="M548.576,164.8a13.33,13.33,0,0,1,2.029-.23,3.321,3.321,0,0,1,3.341,3.566c0,2.829-2.475,3.693-4.826,3.693h-.544Zm11.632,15.717v-.458c-2.253-.179-3.143-1.427-4.356-3.159l-3.194-4.584c2.154-.459,4.06-1.835,4.06-4.28,0-1.477-.866-4.381-5.692-4.381h-7.1v.459c2.327,0,2.327.636,2.327,2.776v10.393c0,2.14,0,2.777-2.327,2.777v.458H550.9v-.458c-2.325,0-2.325-.638-2.325-2.777v-4.636h1.683l5.567,7.871Z" transform="translate(-543.344 -163.076)" fill="#002d5e"/>
        <path id="Path_6152" data-name="Path 6152" d="M559.364,179.673H554.1l-5.567-7.871h-.806v4.058a4.373,4.373,0,0,0,.191,1.866c.106.155.378.334,1.557.334h.578v1.614h-8.135v-1.614h.578c1.18,0,1.453-.179,1.559-.334a4.372,4.372,0,0,0,.191-1.866V165.467a4.368,4.368,0,0,0-.191-1.865c-.106-.155-.379-.333-1.559-.333h-.578v-1.615H549.6c5.968,0,6.27,4.131,6.27,4.959a4.809,4.809,0,0,1-3.693,4.626l2.723,3.909c1.162,1.659,1.929,2.755,3.927,2.914l.532.042Zm-4.661-1.156h1.752a8.875,8.875,0,0,1-2.5-2.708l-3.64-5.226a6.559,6.559,0,0,1-1.034.27l.026.037Zm-9.807,0h2.189a4.141,4.141,0,0,1-.509-2.658V162.883l.475-.073H544.9a4.135,4.135,0,0,1,.509,2.657V175.86A4.139,4.139,0,0,1,544.9,178.518Zm5.832-15.647a4,4,0,0,1,2.373,3.844,3.834,3.834,0,0,1-2.344,3.69l.359-.077c1.083-.231,3.6-1.054,3.6-3.715C554.718,165.8,554.41,163.293,550.728,162.871Zm-3,1v5.957c1.59-.006,4.214-.424,4.214-3.115a2.757,2.757,0,0,0-2.763-2.988A9.283,9.283,0,0,0,547.732,163.873Z" transform="translate(-541.922 -161.654)" fill="#002d5e"/>
      </g>
    </g>
    <path id="Path_6153" data-name="Path 6153" d="M617.408,171.41a8.349,8.349,0,1,1-8.345-8.588A8.469,8.469,0,0,1,617.408,171.41Z" transform="translate(-393.286 -93.236)" fill="#cb0f22"/>
  </g>
</svg>
